<svg width="339" height="246" viewBox="0 0 339 246" fill="none" xmlns="http://www.w3.org/2000/svg">
<g clip-path="url(#clip0_1_2)">
<path d="M48.56 25.32V127.79C48.56 132.89 52.7 137.03 57.8 137.03H184.6C189.7 137.03 193.84 132.89 193.84 127.79V25.32C193.84 20.22 189.7 16.08 184.6 16.08H57.79C52.69 16.09 48.56 20.22 48.56 25.32ZM184.73 132.29H57.67C55.78 132.29 54.25 130.76 54.25 128.87V24.24C54.25 22.35 55.78 20.82 57.67 20.82H184.73C186.62 20.82 188.15 22.35 188.15 24.24V128.87C188.15 130.76 186.62 132.29 184.73 132.29Z" fill="#FADB96"/>
<path d="M280.03 192.39C268.48 192.39 259.12 201.75 259.12 213.3C259.12 224.85 268.48 234.21 280.03 234.21C291.58 234.21 300.94 224.85 300.94 213.3C300.94 201.75 291.58 192.39 280.03 192.39ZM280.03 229C271.35 229 264.32 221.97 264.32 213.29C264.32 204.61 271.35 197.58 280.03 197.58C288.71 197.58 295.74 204.61 295.74 213.29C295.74 221.97 288.71 229 280.03 229Z" fill="#FADB96"/>
<path d="M281.67 73.81V206.8C281.67 210.22 278.9 212.99 275.48 212.99H72.68C69.26 212.99 66.49 210.22 66.49 206.8V73.81C66.49 65.92 72.89 59.51 80.79 59.51H267.37C275.27 59.51 281.67 65.92 281.67 73.81Z" fill="#FBF8FF" stroke="#A6A4F7" stroke-miterlimit="10"/>
<path d="M281.67 73.81V74.41H66.49V73.81C66.49 65.92 72.89 59.51 80.79 59.51H267.37C275.27 59.51 281.67 65.92 281.67 73.81Z" fill="#6E52FF"/>
<path d="M104.16 85.7H78.33C76.6 85.7 75.21 84.3 75.21 82.58C75.21 80.85 76.61 79.46 78.33 79.46H104.16C105.89 79.46 107.28 80.86 107.28 82.58C107.28 84.31 105.88 85.7 104.16 85.7Z" fill="#FFB450"/>
<path d="M199.55 85.04H188.17C187.16 85.04 186.34 84.22 186.34 83.21C186.34 82.2 187.16 81.38 188.17 81.38H199.55C200.56 81.38 201.38 82.2 201.38 83.21C201.38 84.22 200.56 85.04 199.55 85.04Z" fill="#E9E1F4"/>
<path d="M221.06 85.04H209.68C208.67 85.04 207.85 84.22 207.85 83.21C207.85 82.2 208.67 81.38 209.68 81.38H221.06C222.07 81.38 222.89 82.2 222.89 83.21C222.9 84.22 222.08 85.04 221.06 85.04Z" fill="#E9E1F4"/>
<path d="M242.91 85.04H231.53C230.52 85.04 229.7 84.22 229.7 83.21C229.7 82.2 230.52 81.38 231.53 81.38H242.91C243.92 81.38 244.74 82.2 244.74 83.21C244.74 84.22 243.92 85.04 242.91 85.04Z" fill="#E9E1F4"/>
<path d="M264.42 85.04H253.04C252.03 85.04 251.21 84.22 251.21 83.21C251.21 82.2 252.03 81.38 253.04 81.38H264.42C265.43 81.38 266.25 82.2 266.25 83.21C266.26 84.22 265.44 85.04 264.42 85.04Z" fill="#E9E1F4"/>
<path d="M171.92 162.35H87.7C86.51 162.35 85.54 161.38 85.54 160.19V106.61C85.54 105.42 86.51 104.45 87.7 104.45H171.92C173.11 104.45 174.08 105.42 174.08 106.61V160.19C174.08 161.38 173.11 162.35 171.92 162.35Z" fill="#E9E1F4"/>
<path d="M241.72 113.58H193.9C192.97 113.58 192.22 112.83 192.22 111.9V106.13C192.22 105.2 192.97 104.45 193.9 104.45H241.72C242.65 104.45 243.4 105.2 243.4 106.13V111.9C243.4 112.82 242.65 113.58 241.72 113.58Z" fill="#E9E1F4"/>
<path d="M228.07 124.6H193.84C192.94 124.6 192.22 123.87 192.22 122.98C192.22 122.08 192.95 121.36 193.84 121.36H228.07C228.97 121.36 229.69 122.09 229.69 122.98C229.69 123.87 228.97 124.6 228.07 124.6Z" fill="#E9E1F4"/>
<path d="M262.32 132.44H193.84C192.94 132.44 192.22 131.71 192.22 130.82C192.22 129.92 192.95 129.2 193.84 129.2H262.32C263.22 129.2 263.94 129.93 263.94 130.82C263.94 131.71 263.22 132.44 262.32 132.44Z" fill="#E9E1F4"/>
<path d="M262.32 140.28H193.84C192.94 140.28 192.22 139.55 192.22 138.66C192.22 137.76 192.95 137.04 193.84 137.04H262.32C263.22 137.04 263.94 137.77 263.94 138.66C263.94 139.55 263.22 140.28 262.32 140.28Z" fill="#E9E1F4"/>
<path d="M262.32 148.12H193.84C192.94 148.12 192.22 147.39 192.22 146.5C192.22 145.6 192.95 144.88 193.84 144.88H262.32C263.22 144.88 263.94 145.61 263.94 146.5C263.94 147.39 263.22 148.12 262.32 148.12Z" fill="#E9E1F4"/>
<path d="M215.42 164.91H195.75C193.8 164.91 192.22 163.33 192.22 161.38C192.22 159.43 193.8 157.85 195.75 157.85H215.42C217.37 157.85 218.95 159.43 218.95 161.38C218.95 163.33 217.37 164.91 215.42 164.91Z" fill="#FFB450"/>
<path d="M281.67 184.34V206.8C281.67 210.22 278.9 212.99 275.48 212.99H72.68C69.26 212.99 66.49 210.22 66.49 206.8V184.34H281.67Z" fill="#E9E1F4"/>
<path d="M224.48 197.34V212.99H123.68V197.34C123.68 195.53 125.15 194.06 126.96 194.06H221.21C223.01 194.07 224.48 195.53 224.48 197.34Z" fill="#6E52FF"/>
<path d="M248.99 67.65C248.99 68.68 248.16 69.51 247.13 69.51C246.1 69.51 245.27 68.68 245.27 67.65C245.27 66.62 246.1 65.79 247.13 65.79C248.15 65.79 248.99 66.62 248.99 67.65Z" fill="#FFB450"/>
<path d="M259.17 67.65C259.17 68.68 258.34 69.51 257.31 69.51C256.28 69.51 255.45 68.68 255.45 67.65C255.45 66.62 256.28 65.79 257.31 65.79C258.33 65.79 259.17 66.62 259.17 67.65Z" fill="#FFB450"/>
<path d="M268.9 67.65C268.9 68.68 268.07 69.51 267.04 69.51C266.01 69.51 265.18 68.68 265.18 67.65C265.18 66.62 266.01 65.79 267.04 65.79C268.07 65.79 268.9 66.62 268.9 67.65Z" fill="#FFB450"/>
<path d="M281.67 73.81V206.8C281.67 210.22 278.9 212.99 275.48 212.99H72.68C69.26 212.99 66.49 210.22 66.49 206.8V73.81C66.49 65.92 72.89 59.51 80.79 59.51H267.37C275.27 59.51 281.67 65.92 281.67 73.81Z" stroke="#A6A4F7" stroke-miterlimit="10"/>
<path d="M109.98 120.61H27.51C26.09 120.61 24.93 119.46 24.93 118.03V56.18C24.93 54.76 26.08 53.6 27.51 53.6H109.98C111.4 53.6 112.56 54.75 112.56 56.18V118.03C112.56 119.45 111.4 120.61 109.98 120.61Z" fill="#E9E1F4"/>
<path d="M102.49 46.85V108.7C102.49 110.13 101.33 111.28 99.91 111.28H17.44C16.02 111.28 14.86 110.13 14.86 108.7V46.85C14.86 45.42 16.02 44.27 17.44 44.27H99.91C101.34 44.28 102.49 45.43 102.49 46.85Z" fill="#FFCC4D"/>
<path d="M102.49 86.26V108.7C102.49 110.13 101.33 111.28 99.91 111.28H17.44C16.02 111.28 14.86 110.13 14.86 108.7V87.11C14.86 87.11 28.93 62.85 38.91 62.85C51.35 62.85 58.42 91.16 64.6 91.16C70.78 91.16 78.83 71.69 87.01 71.69C91.93 71.68 98.23 79.77 102.49 86.26Z" fill="#FFE7B0"/>
<path d="M91.24 58.14C91.24 61.29 88.68 63.85 85.53 63.85C82.38 63.85 79.82 61.29 79.82 58.14C79.82 54.99 82.38 52.43 85.53 52.43C88.69 52.44 91.24 54.99 91.24 58.14Z" fill="#FFE7B0"/>
<path d="M304.84 175.43H257.1C256.18 175.43 255.44 174.69 255.44 173.77V108.89C255.44 107.97 256.18 107.23 257.1 107.23H304.83C305.75 107.23 306.49 107.97 306.49 108.89V173.77C306.5 174.69 305.75 175.43 304.84 175.43Z" fill="#E9E1F4"/>
<path d="M313.26 167.82H265.53C264.61 167.82 263.87 167.08 263.87 166.16V101.28C263.87 100.36 264.61 99.62 265.53 99.62H313.26C314.18 99.62 314.92 100.36 314.92 101.28V166.16C314.92 167.08 314.18 167.82 313.26 167.82Z" fill="#4C3EDB"/>
<path d="M306.05 107.03H272.75V111.53H306.05V107.03Z" fill="#9A90FC"/>
<path d="M296.37 160.58H282.42C281.03 160.58 279.9 159.45 279.9 158.06C279.9 156.67 281.03 155.54 282.42 155.54H296.37C297.76 155.54 298.89 156.67 298.89 158.06C298.89 159.45 297.76 160.58 296.37 160.58Z" fill="#FFCC4D"/>
<path d="M290.29 120.2H276.75C276.21 120.2 275.77 119.76 275.77 119.22V119.05C275.77 118.51 276.21 118.07 276.75 118.07H290.29C290.83 118.07 291.27 118.51 291.27 119.05V119.22C291.27 119.77 290.83 120.2 290.29 120.2Z" fill="#9A90FC"/>
<path d="M307.81 125.44H276.76C276.22 125.44 275.78 125 275.78 124.46V124.29C275.78 123.75 276.22 123.31 276.76 123.31H307.81C308.35 123.31 308.79 123.75 308.79 124.29V124.46C308.79 125 308.35 125.44 307.81 125.44Z" fill="#9A90FC"/>
<path d="M307.81 130.67H276.76C276.22 130.67 275.78 130.23 275.78 129.69V129.52C275.78 128.98 276.22 128.54 276.76 128.54H307.81C308.35 128.54 308.79 128.98 308.79 129.52V129.69C308.79 130.23 308.35 130.67 307.81 130.67Z" fill="#9A90FC"/>
<path d="M270.4 119.14C270.4 119.73 269.92 120.2 269.34 120.2C268.76 120.2 268.28 119.72 268.28 119.14C268.28 118.55 268.76 118.08 269.34 118.08C269.92 118.08 270.4 118.55 270.4 119.14Z" fill="#9A90FC"/>
<path d="M290.29 137.58H276.75C276.21 137.58 275.77 137.14 275.77 136.6V136.43C275.77 135.89 276.21 135.45 276.75 135.45H290.29C290.83 135.45 291.27 135.89 291.27 136.43V136.6C291.27 137.14 290.83 137.58 290.29 137.58Z" fill="#9A90FC"/>
<path d="M307.81 142.82H276.76C276.22 142.82 275.78 142.38 275.78 141.84V141.67C275.78 141.13 276.22 140.69 276.76 140.69H307.81C308.35 140.69 308.79 141.13 308.79 141.67V141.84C308.79 142.38 308.35 142.82 307.81 142.82Z" fill="#9A90FC"/>
<path d="M307.81 148.05H276.76C276.22 148.05 275.78 147.61 275.78 147.07V146.9C275.78 146.36 276.22 145.92 276.76 145.92H307.81C308.35 145.92 308.79 146.36 308.79 146.9V147.07C308.79 147.61 308.35 148.05 307.81 148.05Z" fill="#9A90FC"/>
<path d="M270.4 136.52C270.4 137.11 269.92 137.58 269.34 137.58C268.76 137.58 268.28 137.1 268.28 136.52C268.28 135.94 268.76 135.46 269.34 135.46C269.92 135.46 270.4 135.93 270.4 136.52Z" fill="#9A90FC"/>
<path d="M337.34 98.17L312.92 118.31C312.73 118.47 312.53 118.61 312.32 118.75C311.8 119.09 311.24 119.34 310.64 119.51L306.69 120.63C306.21 120.77 305.8 120.27 306.03 119.83L307.88 116.16C308.16 115.62 308.51 115.12 308.93 114.68C309.1 114.49 309.29 114.32 309.49 114.15L333.79 94.11C334.92 93.18 336.62 93.19 337.61 94.27C338.66 95.41 338.53 97.19 337.34 98.17Z" fill="#FFCC4D"/>
<path d="M312.32 118.74C311.8 119.08 311.24 119.33 310.64 119.5L308.33 120.16L306.69 120.62C306.21 120.76 305.8 120.26 306.03 119.82L306.8 118.3L307.88 116.15C308.16 115.61 308.51 115.11 308.93 114.67C309.81 114.93 311.86 115.84 312.32 118.74Z" fill="#FFE7B0"/>
<path d="M308.33 120.16L306.69 120.62C306.21 120.76 305.8 120.26 306.03 119.82L306.8 118.3C307.52 118.38 308.5 118.73 308.33 120.16Z" fill="#FFCC4D"/>
<path d="M234.95 9.33V51.7C234.95 53.92 233.15 55.71 230.94 55.71H168.94C166.72 55.71 164.93 53.91 164.93 51.7V9.33C164.93 7.11 166.73 5.32 168.94 5.32H230.94C233.15 5.32 234.95 7.11 234.95 9.33Z" fill="#E9E1F4"/>
<path d="M229.88 4.01V46.38C229.88 48.6 228.08 50.39 225.87 50.39H163.87C161.65 50.39 159.86 48.59 159.86 46.38V4.01C159.86 1.79 161.66 0 163.87 0H225.87C228.08 0 229.88 1.8 229.88 4.01Z" fill="#6E52FF"/>
<path d="M229.88 40.72V46.39C229.88 48.61 228.08 50.4 225.87 50.4H163.87C161.65 50.4 159.86 48.6 159.86 46.39V40.72H229.88Z" fill="#4C3EDB"/>
<path d="M197.03 46.03C197.03 46.5 197.17 46.93 197.42 47.3H166.1C165.4 47.3 164.83 46.74 164.83 46.03C164.83 45.33 165.4 44.76 166.1 44.76H197.42C197.18 45.13 197.03 45.56 197.03 46.03Z" fill="#6E52FF"/>
<path d="M207.86 46.03C207.86 46.73 207.29 47.3 206.59 47.3H197.43C197.18 46.93 197.04 46.5 197.04 46.03C197.04 45.56 197.18 45.13 197.43 44.76H206.59C207.28 44.77 207.86 45.34 207.86 46.03Z" fill="#8F83FF"/>
<path d="M201.53 46.03C201.53 46.5 201.39 46.93 201.14 47.3C200.74 47.89 200.06 48.28 199.28 48.28C198.51 48.28 197.83 47.89 197.43 47.3C197.18 46.93 197.04 46.5 197.04 46.03C197.04 45.56 197.18 45.13 197.43 44.76C197.83 44.17 198.51 43.78 199.28 43.78C200.06 43.78 200.74 44.17 201.14 44.76C201.38 45.13 201.53 45.56 201.53 46.03Z" fill="white"/>
<path d="M200.38 46.03C200.38 46.64 199.89 47.13 199.28 47.13C198.67 47.13 198.18 46.64 198.18 46.03C198.18 45.42 198.67 44.93 199.28 44.93C199.89 44.93 200.38 45.42 200.38 46.03Z" fill="#6E52FF"/>
<path d="M217.3 47.15V45.04C217.3 44.76 217.59 44.58 217.84 44.71L219.95 45.77C220.22 45.91 220.22 46.3 219.95 46.43L217.84 47.49C217.59 47.61 217.3 47.43 217.3 47.15Z" fill="#8F83FF"/>
<path d="M222.99 46.74V45.45C222.99 45.28 223.13 45.17 223.25 45.25L224.27 45.9C224.4 45.98 224.4 46.22 224.27 46.31L223.25 46.96C223.13 47.02 222.99 46.91 222.99 46.74Z" fill="#8F83FF"/>
<path d="M224.37 46.74V45.45C224.37 45.28 224.51 45.17 224.63 45.25L225.65 45.9C225.78 45.98 225.78 46.22 225.65 46.31L224.63 46.96C224.51 47.02 224.37 46.91 224.37 46.74Z" fill="#8F83FF"/>
<path d="M214.7 46.74V45.45C214.7 45.28 214.56 45.17 214.44 45.25L213.42 45.9C213.29 45.98 213.29 46.22 213.42 46.31L214.44 46.96C214.56 47.02 214.7 46.91 214.7 46.74Z" fill="#8F83FF"/>
<path d="M213.32 46.74V45.45C213.32 45.28 213.18 45.17 213.06 45.25L212.04 45.9C211.91 45.98 211.91 46.22 212.04 46.31L213.06 46.96C213.18 47.02 213.32 46.91 213.32 46.74Z" fill="#8F83FF"/>
<path d="M207.009 23.875C208.601 17.1686 204.456 10.4413 197.749 8.84908C191.043 7.25691 184.315 11.4028 182.723 18.1092C181.131 24.8157 185.277 31.543 191.983 33.1352C198.69 34.7273 205.417 30.5814 207.009 23.875Z" fill="#FBF8FF"/>
<path d="M191.57 24.84V17.16C191.57 16.31 192.51 15.8 193.22 16.26L199.12 20.1C199.77 20.52 199.77 21.47 199.12 21.89L193.22 25.73C192.51 26.2 191.57 25.69 191.57 24.84Z" fill="#6E52FF"/>
<path d="M78.83 231.02H31.2C28.39 231.02 26.11 228.74 26.11 225.93V187.94C26.11 185.13 28.39 182.85 31.2 182.85H78.83C81.64 182.85 83.92 185.13 83.92 187.94V225.93C83.92 228.74 81.64 231.02 78.83 231.02Z" fill="#E9E1F4"/>
<path d="M72.37 224.21H24.74C21.93 224.21 19.65 221.93 19.65 219.12V181.13C19.65 178.32 21.93 176.04 24.74 176.04H72.37C75.18 176.04 77.46 178.32 77.46 181.13V219.12C77.46 221.93 75.18 224.21 72.37 224.21Z" fill="#FCFAFF"/>
<path d="M44.27 216.58H42.05C41.63 216.58 41.31 216.19 41.41 215.77L43.81 205.15C43.88 204.85 44.15 204.63 44.45 204.63H48.18C48.6 204.63 48.92 205.02 48.82 205.44L46.75 214.59C46.5 215.75 45.46 216.58 44.27 216.58Z" fill="#6E52FF"/>
<path d="M63.56 201.63H61.46V194.4H63.56C65.56 194.4 67.17 196.02 67.17 198.01C67.17 200.01 65.56 201.63 63.56 201.63Z" fill="#FFCC4D"/>
<path d="M38.06 205.94H43.74V190.3H38.06C35.76 190.3 33.89 192.17 33.89 194.47V201.78C33.89 204.08 35.76 205.94 38.06 205.94Z" fill="#FFCC4D"/>
<path d="M43.74 190.3L62.77 187.18C63.72 187.02 64.58 187.76 64.58 188.72V207.31C64.58 208.26 63.73 209 62.79 208.85L43.74 205.95V190.3V190.3Z" fill="#FFE7B0"/>
<path d="M41.17 194.03H37.36C37.13 194.03 36.94 193.84 36.94 193.61C36.94 193.38 37.13 193.19 37.36 193.19H41.17C41.4 193.19 41.59 193.38 41.59 193.61C41.6 193.84 41.41 194.03 41.17 194.03Z" fill="#FFE7B0"/>
<path d="M41.17 195.62H37.36C37.13 195.62 36.94 195.43 36.94 195.2C36.94 194.97 37.13 194.78 37.36 194.78H41.17C41.4 194.78 41.59 194.97 41.59 195.2C41.6 195.43 41.41 195.62 41.17 195.62Z" fill="#FFE7B0"/>
<path d="M195.15 185.49H230.53L239.77 194.82V243.7C239.77 244.49 239.13 245.13 238.34 245.13H194.82C194.03 245.13 193.39 244.49 193.39 243.7V187.25C193.39 186.27 194.17 185.49 195.15 185.49Z" fill="#E9E1F4"/>
<path d="M189.91 180.25H225.29L234.53 189.58V238.46C234.53 239.25 233.89 239.89 233.1 239.89H189.58C188.79 239.89 188.15 239.25 188.15 238.46V182.01C188.15 181.04 188.94 180.25 189.91 180.25Z" fill="#FFCC4D"/>
<path d="M225.29 180.25V187.98C225.29 188.86 226 189.58 226.89 189.58H234.54L225.29 180.25Z" fill="#FFE7B0"/>
<path d="M193.92 207.15C194.41 206.29 195.08 205.62 195.94 205.13C196.79 204.65 197.75 204.41 198.81 204.41C200.05 204.41 201.13 204.73 202.06 205.36C202.99 205.99 203.64 206.87 204.01 207.99H201.45C201.2 207.46 200.84 207.06 200.38 206.8C199.92 206.54 199.39 206.4 198.78 206.4C198.13 206.4 197.56 206.55 197.06 206.85C196.56 207.15 196.17 207.58 195.89 208.13C195.61 208.68 195.47 209.33 195.47 210.07C195.47 210.8 195.61 211.44 195.89 212C196.17 212.56 196.56 212.98 197.06 213.29C197.56 213.59 198.14 213.74 198.78 213.74C199.38 213.74 199.92 213.61 200.38 213.34C200.84 213.07 201.2 212.67 201.45 212.14H204C203.63 213.27 202.98 214.15 202.06 214.78C201.13 215.41 200.05 215.72 198.8 215.72C197.74 215.72 196.79 215.48 195.93 215C195.08 214.52 194.41 213.85 193.91 212.99C193.42 212.13 193.17 211.16 193.17 210.07C193.18 208.99 193.43 208.01 193.92 207.15Z" fill="white"/>
<path d="M218.78 204.55V215.63H216.56V208.42L213.59 215.63H211.91L208.93 208.42V215.63H206.71V204.55H209.23L212.75 212.79L216.27 204.55H218.78Z" fill="white"/>
<path d="M223.5 215.35C222.88 215.09 222.39 214.71 222.03 214.21C221.67 213.71 221.48 213.13 221.47 212.45H223.85C223.88 212.9 224.04 213.27 224.33 213.53C224.62 213.79 225.02 213.93 225.53 213.93C226.05 213.93 226.46 213.81 226.75 213.56C227.05 213.31 227.19 212.99 227.19 212.58C227.19 212.25 227.09 211.98 226.89 211.77C226.69 211.56 226.44 211.39 226.14 211.27C225.84 211.15 225.42 211.01 224.89 210.87C224.17 210.66 223.59 210.45 223.14 210.24C222.69 210.03 222.3 209.72 221.98 209.3C221.66 208.88 221.5 208.32 221.5 207.63C221.5 206.97 221.66 206.4 221.99 205.92C222.32 205.43 222.78 205.06 223.37 204.8C223.96 204.54 224.64 204.41 225.4 204.41C226.54 204.41 227.47 204.69 228.19 205.24C228.9 205.8 229.3 206.57 229.37 207.57H226.93C226.91 207.19 226.75 206.87 226.45 206.63C226.15 206.38 225.75 206.26 225.25 206.26C224.82 206.26 224.47 206.37 224.21 206.59C223.95 206.81 223.82 207.13 223.82 207.56C223.82 207.86 223.92 208.1 224.11 208.3C224.31 208.5 224.55 208.65 224.84 208.78C225.13 208.9 225.54 209.04 226.07 209.2C226.79 209.41 227.38 209.62 227.83 209.84C228.28 210.05 228.68 210.37 229 210.79C229.33 211.21 229.49 211.77 229.49 212.46C229.49 213.05 229.34 213.6 229.03 214.11C228.72 214.62 228.27 215.02 227.68 215.32C227.09 215.62 226.38 215.77 225.57 215.77C224.82 215.74 224.12 215.61 223.5 215.35Z" fill="white"/>
<path d="M37.3 148.5C36.28 148.5 35.45 147.67 35.45 146.65C35.45 145.63 36.28 144.8 37.3 144.8C38.32 144.8 39.15 145.63 39.15 146.65C39.15 147.67 38.32 148.5 37.3 148.5Z" fill="#A6A4F7"/>
<path d="M28.44 148.5C27.42 148.5 26.59 147.67 26.59 146.65C26.59 145.63 27.42 144.8 28.44 144.8C29.46 144.8 30.29 145.63 30.29 146.65C30.29 147.67 29.46 148.5 28.44 148.5Z" fill="#A6A4F7"/>
<path d="M19.58 148.5C18.56 148.5 17.73 147.67 17.73 146.65C17.73 145.63 18.56 144.8 19.58 144.8C20.6 144.8 21.43 145.63 21.43 146.65C21.43 147.67 20.6 148.5 19.58 148.5Z" fill="#A6A4F7"/>
<path d="M10.71 148.5C9.69 148.5 8.86 147.67 8.86 146.65C8.86 145.63 9.69 144.8 10.71 144.8C11.73 144.8 12.56 145.63 12.56 146.65C12.56 147.67 11.74 148.5 10.71 148.5Z" fill="#A6A4F7"/>
<path d="M1.85 148.5C0.83 148.5 0 147.67 0 146.65C0 145.63 0.83 144.8 1.85 144.8C2.87 144.8 3.7 145.63 3.7 146.65C3.7 147.67 2.87 148.5 1.85 148.5Z" fill="#A6A4F7"/>
<path d="M42.93 156.39C41.91 156.39 41.08 155.56 41.08 154.54C41.08 153.52 41.91 152.69 42.93 152.69C43.95 152.69 44.78 153.52 44.78 154.54C44.78 155.56 43.95 156.39 42.93 156.39Z" fill="#A6A4F7"/>
<path d="M34.06 156.39C33.04 156.39 32.21 155.56 32.21 154.54C32.21 153.52 33.04 152.69 34.06 152.69C35.08 152.69 35.91 153.52 35.91 154.54C35.91 155.56 35.09 156.39 34.06 156.39Z" fill="#A6A4F7"/>
<path d="M25.2 156.39C24.18 156.39 23.35 155.56 23.35 154.54C23.35 153.52 24.18 152.69 25.2 152.69C26.22 152.69 27.05 153.52 27.05 154.54C27.05 155.56 26.22 156.39 25.2 156.39Z" fill="#A6A4F7"/>
<path d="M16.34 156.39C17.3617 156.39 18.19 155.562 18.19 154.54C18.19 153.518 17.3617 152.69 16.34 152.69C15.3183 152.69 14.49 153.518 14.49 154.54C14.49 155.562 15.3183 156.39 16.34 156.39Z" fill="#A6A4F7"/>
<path d="M7.47 156.39C8.49172 156.39 9.31999 155.562 9.31999 154.54C9.31999 153.518 8.49172 152.69 7.47 152.69C6.44827 152.69 5.62 153.518 5.62 154.54C5.62 155.562 6.44827 156.39 7.47 156.39Z" fill="#A6A4F7"/>
<path d="M48.02 164.28C49.0417 164.28 49.87 163.452 49.87 162.43C49.87 161.408 49.0417 160.58 48.02 160.58C46.9983 160.58 46.17 161.408 46.17 162.43C46.17 163.452 46.9983 164.28 48.02 164.28Z" fill="#A6A4F7"/>
<path d="M39.15 164.28C40.1717 164.28 41 163.452 41 162.43C41 161.408 40.1717 160.58 39.15 160.58C38.1283 160.58 37.3 161.408 37.3 162.43C37.3 163.452 38.1283 164.28 39.15 164.28Z" fill="#A6A4F7"/>
<path d="M30.29 164.28C29.27 164.28 28.44 163.45 28.44 162.43C28.44 161.41 29.27 160.58 30.29 160.58C31.31 160.58 32.14 161.41 32.14 162.43C32.14 163.45 31.31 164.28 30.29 164.28Z" fill="#A6A4F7"/>
<path d="M21.43 164.28C20.41 164.28 19.58 163.45 19.58 162.43C19.58 161.41 20.41 160.58 21.43 160.58C22.45 160.58 23.28 161.41 23.28 162.43C23.28 163.45 22.45 164.28 21.43 164.28Z" fill="#A6A4F7"/>
<path d="M12.56 164.28C11.54 164.28 10.71 163.45 10.71 162.43C10.71 161.41 11.54 160.58 12.56 160.58C13.58 160.58 14.41 161.41 14.41 162.43C14.41 163.45 13.59 164.28 12.56 164.28Z" fill="#A6A4F7"/>
<path d="M134.03 230.2H104.82C103.67 230.2 102.73 229.27 102.73 228.11C102.73 226.96 103.66 226.02 104.82 226.02H134.03C135.18 226.02 136.12 226.95 136.12 228.11C136.12 229.26 135.18 230.2 134.03 230.2Z" fill="#FADB96"/>
<path d="M134.03 240.63H104.82C103.67 240.63 102.73 239.7 102.73 238.54C102.73 237.39 103.66 236.45 104.82 236.45H134.03C135.18 236.45 136.12 237.38 136.12 238.54C136.12 239.69 135.18 240.63 134.03 240.63Z" fill="#FADB96"/>
<path d="M299.1 31.89L305.48 30.69V24.97L299.1 23.87C298.61 21.52 297.68 19.32 296.4 17.37L300.06 12L296.01 7.95L290.72 11.69C288.77 10.41 286.58 9.49 284.22 9L283.02 2.62H277.3L276.2 9C273.85 9.49 271.65 10.42 269.7 11.7L264.34 8.04L260.29 12.09L264.03 17.38C262.75 19.33 261.83 21.53 261.34 23.88L254.96 25.08V30.8L261.34 31.9C261.83 34.26 262.76 36.45 264.04 38.4L260.38 43.76L264.43 47.81L269.73 44.07C271.68 45.35 273.88 46.28 276.23 46.76L277.43 53.14H283.15L284.25 46.76C286.61 46.27 288.8 45.34 290.75 44.06L296.11 47.72L300.16 43.67L296.42 38.38C297.69 36.44 298.61 34.25 299.1 31.89ZM280.22 39.73C273.68 39.73 268.38 34.42 268.38 27.89C268.38 21.36 273.68 16.05 280.22 16.05C286.76 16.05 292.06 21.35 292.06 27.89C292.06 34.43 286.76 39.73 280.22 39.73Z" stroke="#A6A4F7" stroke-miterlimit="10"/>
<path d="M321.12 69.12L324.8 70.41L326.52 67.44L323.53 64.95C323.98 63.58 324.16 62.15 324.08 60.76L327.6 59.07L326.71 55.75L322.84 56.11C322.21 54.86 321.34 53.72 320.27 52.76L321.56 49.08L318.59 47.36L316.1 50.35C314.73 49.9 313.3 49.72 311.91 49.8L310.22 46.29L306.9 47.18L307.26 51.06C306.01 51.69 304.87 52.56 303.91 53.63L300.23 52.34L298.51 55.31L301.5 57.8C301.05 59.18 300.87 60.59 300.95 61.99L297.44 63.68L298.33 67L302.21 66.64C302.84 67.89 303.7 69.03 304.78 69.99L303.49 73.67L306.46 75.39L308.95 72.4C310.33 72.85 311.74 73.03 313.14 72.95L314.83 76.46L318.15 75.57L317.79 71.69C319.02 71.07 320.16 70.21 321.12 69.12ZM308.95 67.53C305.55 65.57 304.39 61.22 306.35 57.82C308.31 54.42 312.66 53.26 316.06 55.22C319.46 57.18 320.62 61.53 318.66 64.93C316.7 68.33 312.35 69.49 308.95 67.53Z" stroke="#FADB96" stroke-miterlimit="10"/>
</g>
<defs>
<clipPath id="clip0_1_2">
<rect width="338.32" height="245.13" fill="white"/>
</clipPath>
</defs>
</svg>
